<svg width="512" height="512" viewBox="0 0 512 512" fill="none" xmlns="http://www.w3.org/2000/svg">
<path d="M89.77 256.88C89.63 257.207 89.0933 257.463 88.16 257.65C87.2267 257.837 85.7333 258.047 83.68 258.28C83.0733 258.327 82.1633 258.373 80.95 258.42C79.7833 258.467 78.5 258.513 77.1 258.56C75.7467 258.607 74.51 258.63 73.39 258.63C72.27 258.583 71.5 258.513 71.08 258.42C71.08 258.42 70.9633 258.537 70.73 258.77C70.5433 259.003 70.45 259.307 70.45 259.68C70.1233 260.24 69.7033 261.103 69.19 262.27C68.7233 263.437 68.1867 264.72 67.58 266.12C67.02 267.52 66.4833 268.92 65.97 270.32C65.5033 271.72 65.1067 272.933 64.78 273.96C64.4533 274.987 64.29 275.687 64.29 276.06C63.87 277.18 63.6133 278.137 63.52 278.93C63.4267 279.723 63.2633 280.19 63.03 280.33C62.9833 280.517 62.68 280.563 62.12 280.47C61.56 280.377 61.0933 280.12 60.72 279.7C60.16 279.28 59.8333 278.907 59.74 278.58C59.6933 278.207 59.8333 277.507 60.16 276.48C60.3 275.873 60.5333 274.987 60.86 273.82C61.2333 272.607 61.63 271.277 62.05 269.83C62.5167 268.383 62.9833 266.983 63.45 265.63C63.9633 264.23 64.4533 263.087 64.92 262.2C65.4333 261.313 65.76 260.52 65.9 259.82C66.04 259.073 66.2267 258.397 66.46 257.79C66.4133 257.277 66.4133 256.927 66.46 256.74C66.5067 256.553 66.6933 256.273 67.02 255.9C67.2533 255.713 67.5333 255.387 67.86 254.92C68.2333 254.407 68.6533 253.637 69.12 252.61C69.26 252.143 69.47 251.513 69.75 250.72C70.0767 249.88 70.38 249.04 70.66 248.2C70.94 247.313 71.1967 246.567 71.43 245.96C71.6633 245.353 71.78 245.027 71.78 244.98C71.8733 244.793 72.0133 244.443 72.2 243.93C72.3867 243.37 72.5267 242.927 72.62 242.6C72.8067 241.947 72.9467 241.41 73.04 240.99C73.18 240.57 73.1567 240.36 72.97 240.36C72.5967 240.453 71.85 240.523 70.73 240.57C70.17 240.663 69.75 240.733 69.47 240.78C69.2367 240.78 69.0267 240.803 68.84 240.85C68.3733 240.897 67.9533 240.85 67.58 240.71C67.2067 240.57 67.02 240.29 67.02 239.87C67.1133 239.123 67.37 238.517 67.79 238.05C68.2567 237.537 68.84 237.257 69.54 237.21C69.8667 237.117 70.2167 237.047 70.59 237C71.01 236.907 71.57 236.767 72.27 236.58C73.1567 236.393 73.8333 236.253 74.3 236.16C74.8133 236.02 75.21 235.997 75.49 236.09C75.7233 235.95 75.9333 235.81 76.12 235.67C76.3067 235.483 76.4 235.297 76.4 235.11C76.4 234.877 76.4933 234.713 76.68 234.62C76.9133 234.48 77.17 234.41 77.45 234.41C77.73 234.363 78.01 234.387 78.29 234.48C78.6167 234.573 78.85 234.737 78.99 234.97C79.0833 235.11 79.2933 235.227 79.62 235.32C79.9467 235.413 80.53 235.413 81.37 235.32C82.2567 235.18 83.4933 234.947 85.08 234.62C85.92 234.527 86.97 234.433 88.23 234.34C89.5367 234.247 90.5633 234.317 91.31 234.55C92.1033 234.41 92.8033 234.363 93.41 234.41C94.0633 234.41 94.5067 234.317 94.74 234.13C95.72 234.317 96.42 234.457 96.84 234.55C97.3067 234.597 97.68 234.737 97.96 234.97C98.1467 235.157 98.1933 235.343 98.1 235.53C98.0533 235.67 98.03 235.74 98.03 235.74C97.8433 235.647 97.8667 235.67 98.1 235.81C98.3333 235.903 98.4967 235.997 98.59 236.09C98.9167 236.23 99.1267 236.417 99.22 236.65C99.3133 236.837 99.36 237.023 99.36 237.21C99.36 237.397 99.3367 237.56 99.29 237.7C99.2433 238.12 99.01 238.377 98.59 238.47C98.17 238.517 97.12 238.517 95.44 238.47C93.4333 238.19 91.45 238.097 89.49 238.19C87.5767 238.237 85.3367 238.447 82.77 238.82C81.8367 238.867 80.9967 239.007 80.25 239.24C79.55 239.427 79.1533 239.52 79.06 239.52C78.8733 239.52 78.5467 239.847 78.08 240.5C77.6133 241.107 77.17 242.017 76.75 243.23C76.5633 243.557 76.2367 244.303 75.77 245.47C75.3033 246.637 74.79 247.897 74.23 249.25C73.7167 250.603 73.25 251.793 72.83 252.82C72.4567 253.847 72.2233 254.407 72.13 254.5C72.7833 254.687 73.8333 254.78 75.28 254.78C76.7733 254.78 78.4067 254.733 80.18 254.64C82 254.5 83.6567 254.36 85.15 254.22C85.85 254.08 86.5733 253.963 87.32 253.87C88.1133 253.73 88.6267 253.707 88.86 253.8C89.0933 253.94 89.3033 254.22 89.49 254.64C89.6767 255.013 89.7933 255.41 89.84 255.83C89.9333 256.25 89.91 256.6 89.77 256.88ZM96.2543 279C95.3676 279.233 94.6443 279.047 94.0843 278.44C93.571 277.833 93.2676 276.9 93.1743 275.64C93.081 274.38 93.221 272.887 93.5943 271.16C93.8276 270.6 94.0143 270.063 94.1543 269.55C94.2943 268.99 94.3643 268.547 94.3643 268.22C94.4576 267.753 94.6443 267.077 94.9243 266.19C95.2043 265.257 95.5076 264.3 95.8343 263.32C96.161 262.34 96.4643 261.477 96.7443 260.73C97.071 259.937 97.281 259.447 97.3743 259.26C97.561 259.26 97.7243 259.097 97.8643 258.77C98.0043 258.443 98.0743 258.117 98.0743 257.79C98.0743 257.417 98.1443 256.997 98.2843 256.53C98.471 256.063 98.6576 255.737 98.8443 255.55C98.8443 255.317 98.891 255.06 98.9843 254.78C99.1243 254.453 99.1943 254.197 99.1943 254.01C99.1943 253.823 99.241 253.637 99.3343 253.45C99.4743 253.263 99.5443 253.077 99.5443 252.89C99.871 252.283 100.291 251.327 100.804 250.02C101.364 248.667 101.948 247.173 102.554 245.54C103.208 243.907 103.814 242.297 104.374 240.71C104.934 239.123 105.378 237.793 105.704 236.72C106.078 235.6 106.264 234.923 106.264 234.69C106.264 234.317 106.358 234.037 106.544 233.85C106.731 233.663 107.011 233.57 107.384 233.57C107.524 233.43 107.688 233.337 107.874 233.29C108.108 233.243 108.318 233.22 108.504 233.22C108.504 233.22 108.598 233.313 108.784 233.5C108.971 233.687 109.251 233.967 109.624 234.34C109.998 234.667 110.208 235.04 110.254 235.46C110.348 235.88 110.394 236.37 110.394 236.93C110.394 237.537 110.324 238.073 110.184 238.54C110.044 239.007 109.764 239.683 109.344 240.57C108.924 241.457 108.271 242.833 107.384 244.7C107.011 245.633 106.614 246.52 106.194 247.36C105.774 248.153 105.564 248.643 105.564 248.83C105.564 249.017 105.471 249.297 105.284 249.67C105.144 250.043 104.981 250.51 104.794 251.07C104.608 251.443 104.351 252.003 104.024 252.75C103.698 253.45 103.348 254.22 102.974 255.06C102.648 255.853 102.368 256.553 102.134 257.16C101.901 257.72 101.784 258.047 101.784 258.14C101.784 258.327 101.761 258.513 101.714 258.7C101.714 258.887 101.621 259.073 101.434 259.26C101.248 259.26 101.131 259.4 101.084 259.68C101.084 259.913 101.084 260.03 101.084 260.03C101.084 260.497 100.711 261.733 99.9643 263.74C99.2176 266.307 98.5176 268.663 97.8643 270.81C97.2576 272.957 96.9543 274.683 96.9543 275.99C96.9543 277.11 96.931 277.857 96.8843 278.23C96.8376 278.557 96.6276 278.813 96.2543 279ZM122.71 278.86C122.244 278.393 121.777 277.763 121.31 276.97C120.844 276.13 120.47 275.173 120.19 274.1C120.097 273.727 120.05 273.213 120.05 272.56C120.097 271.907 120.097 271.44 120.05 271.16C119.91 271.487 119.677 271.837 119.35 272.21C119.07 272.537 118.79 272.817 118.51 273.05C118.324 273.237 117.904 273.61 117.25 274.17C116.597 274.683 115.944 275.103 115.29 275.43C113.75 276.41 112.467 276.947 111.44 277.04C110.46 277.133 109.527 276.62 108.64 275.5C107.894 274.893 107.357 274.217 107.03 273.47C106.75 272.723 106.75 271.697 107.03 270.39C107.124 268.757 107.357 267.17 107.73 265.63C108.104 264.043 108.874 261.943 110.04 259.33C111.02 257.417 111.767 256.017 112.28 255.13C112.794 254.197 113.12 253.637 113.26 253.45C113.96 253.217 114.544 253.24 115.01 253.52C115.477 253.753 115.757 254.197 115.85 254.85C116.13 255.317 116.084 256.11 115.71 257.23C115.384 258.35 114.8 259.727 113.96 261.36C113.307 262.947 112.7 264.533 112.14 266.12C111.627 267.707 111.324 269.06 111.23 270.18C111.137 271.3 111.417 271.977 112.07 272.21C112.49 272.443 113.214 272.373 114.24 272C115.314 271.627 116.504 270.693 117.81 269.2C119.164 267.707 120.47 265.443 121.73 262.41C122.104 261.477 122.384 260.66 122.57 259.96C122.757 259.213 122.874 258.397 122.92 257.51C122.827 256.95 122.85 256.46 122.99 256.04C123.177 255.573 123.55 255.177 124.11 254.85C124.297 254.617 124.554 254.407 124.88 254.22C125.207 253.987 125.417 253.987 125.51 254.22L126.63 254.15C126.817 254.103 126.934 254.22 126.98 254.5C127.074 254.733 127.237 254.943 127.47 255.13C127.984 255.55 128.124 256.46 127.89 257.86C127.657 259.26 127.004 261.22 125.93 263.74C125.044 265.653 124.437 267.1 124.11 268.08C123.83 269.06 123.667 270.017 123.62 270.95C123.62 271.79 123.784 272.583 124.11 273.33C124.437 274.077 124.95 274.753 125.65 275.36C126.164 275.687 126.444 276.06 126.49 276.48C126.584 276.9 126.607 277.39 126.56 277.95C126.467 278.37 126.187 278.72 125.72 279C125.3 279.233 124.81 279.35 124.25 279.35C123.69 279.35 123.177 279.187 122.71 278.86ZM140.639 278.86C139.985 278.673 139.449 278.463 139.029 278.23C138.609 277.95 138.049 277.507 137.349 276.9C136.789 276.153 136.345 275.453 136.019 274.8C135.739 274.147 135.552 273.4 135.459 272.56C135.365 271.673 135.319 270.553 135.319 269.2C135.319 268.64 135.412 267.8 135.599 266.68C135.832 265.56 136.089 264.393 136.369 263.18C136.695 261.92 136.975 260.8 137.209 259.82C137.489 258.84 137.652 258.21 137.699 257.93C137.839 257.323 137.605 256.973 136.999 256.88C136.392 256.787 135.715 256.763 134.969 256.81C134.269 256.81 133.802 256.74 133.569 256.6C133.382 256.553 133.289 256.483 133.289 256.39C133.289 256.25 133.289 256.18 133.289 256.18C133.289 255.993 133.265 255.877 133.219 255.83C133.219 255.737 133.149 255.573 133.009 255.34C132.915 255.153 132.962 254.897 133.149 254.57C133.382 254.197 133.755 253.963 134.269 253.87C134.689 253.777 135.249 253.707 135.949 253.66C136.695 253.567 137.442 253.403 138.189 253.17C138.935 252.89 139.542 252.47 140.009 251.91C140.429 250.883 140.919 249.74 141.479 248.48C142.039 247.22 142.575 246.1 143.089 245.12C143.649 244.093 144.022 243.463 144.209 243.23C145.002 242.81 145.585 242.647 145.959 242.74C146.332 242.787 146.752 243.183 147.219 243.93C147.452 244.257 147.615 244.513 147.709 244.7C147.849 244.887 147.872 245.167 147.779 245.54C147.685 245.913 147.429 246.497 147.009 247.29C146.635 248.083 146.052 249.227 145.259 250.72C145.025 251.187 144.815 251.607 144.629 251.98C144.442 252.307 144.349 252.47 144.349 252.47C144.535 252.517 144.815 252.54 145.189 252.54C145.562 252.54 146.029 252.517 146.589 252.47C147.102 252.377 147.755 252.307 148.549 252.26C149.342 252.167 149.972 252.167 150.439 252.26C151.512 252.26 152.305 252.47 152.819 252.89C153.332 253.263 153.612 253.917 153.659 254.85C153.752 255.363 153.635 255.667 153.309 255.76C153.029 255.853 152.259 255.9 150.999 255.9C150.579 255.9 149.925 255.923 149.039 255.97C148.152 256.017 147.219 256.063 146.239 256.11C145.305 256.157 144.489 256.227 143.789 256.32C143.135 256.367 142.809 256.437 142.809 256.53C142.669 256.623 142.435 257.067 142.109 257.86C141.829 258.653 141.525 259.563 141.199 260.59C140.919 261.57 140.662 262.457 140.429 263.25C140.102 264.837 139.845 266.423 139.659 268.01C139.519 269.597 139.495 270.973 139.589 272.14C139.682 273.307 139.939 274.123 140.359 274.59C140.779 275.01 141.595 275.103 142.809 274.87C144.022 274.59 145.002 274.147 145.749 273.54C146.589 272.84 147.265 272.49 147.779 272.49C148.339 272.49 148.642 272.747 148.689 273.26C148.782 273.727 148.525 274.403 147.919 275.29C147.359 276.13 146.659 276.877 145.819 277.53C144.979 278.137 144.092 278.58 143.159 278.86C142.272 279.093 141.432 279.093 140.639 278.86ZM161.363 282.5C159.823 282.267 158.773 281.683 158.213 280.75C157.699 279.863 157.583 278.487 157.863 276.62C158.143 275.733 158.306 274.94 158.352 274.24C158.446 273.493 158.656 273.027 158.983 272.84C158.983 272.84 159.006 272.77 159.053 272.63C159.146 272.49 159.123 272.35 158.983 272.21C158.983 271.603 159.193 270.763 159.613 269.69C159.706 269.41 159.823 269.083 159.963 268.71C160.149 268.29 160.243 268.08 160.243 268.08C160.009 267.707 160.009 267.403 160.243 267.17C160.476 266.937 160.709 266.727 160.943 266.54C161.223 266.307 161.246 266.05 161.013 265.77C160.919 265.583 161.036 265.163 161.363 264.51C161.689 263.81 162.063 263.087 162.483 262.34C162.903 261.593 163.183 261.01 163.323 260.59C163.323 260.497 163.439 260.17 163.673 259.61C163.906 259.05 164.186 258.397 164.513 257.65C164.839 256.903 165.143 256.227 165.423 255.62C165.749 255.013 165.959 254.617 166.052 254.43C166.519 254.197 166.333 254.033 165.493 253.94C164.653 253.847 163.766 253.823 162.833 253.87C161.386 253.823 160.219 253.753 159.333 253.66C158.493 253.567 157.793 253.357 157.233 253.03C156.673 252.377 156.463 251.91 156.603 251.63C156.789 251.303 157.349 251.117 158.283 251.07C158.889 251.023 159.356 251 159.683 251C160.056 251 160.523 250.977 161.083 250.93C161.689 250.837 162.623 250.72 163.883 250.58L167.453 250.3L167.663 249.11C168.036 248.503 168.339 247.967 168.573 247.5C168.853 246.987 169.086 246.473 169.273 245.96C169.459 245.447 169.599 244.91 169.693 244.35C169.693 244.35 169.903 243.977 170.323 243.23C170.743 242.437 170.999 241.62 171.093 240.78C171.653 239.847 172.143 239.007 172.563 238.26C172.983 237.467 173.239 236.977 173.333 236.79C173.846 236.37 174.196 236.16 174.383 236.16C174.616 236.16 175.083 236.393 175.783 236.86C176.203 237.093 176.576 237.373 176.903 237.7C177.229 238.027 177.439 238.377 177.533 238.75C177.626 239.077 177.486 239.403 177.113 239.73C177.019 239.917 176.879 240.267 176.693 240.78C176.506 241.247 176.366 241.643 176.273 241.97C175.993 242.297 175.643 242.833 175.223 243.58C174.849 244.28 174.593 245.003 174.453 245.75C174.079 246.543 173.729 247.267 173.403 247.92C173.076 248.527 172.819 248.83 172.633 248.83C172.726 249.297 173.006 249.53 173.473 249.53C173.939 249.483 174.709 249.437 175.783 249.39C176.669 249.297 177.276 249.203 177.603 249.11C177.976 248.97 178.396 249.017 178.863 249.25C179.096 249.577 179.283 249.95 179.423 250.37C179.563 250.79 179.586 251.187 179.493 251.56C179.446 251.887 179.259 252.12 178.933 252.26C178.699 252.26 178.209 252.4 177.463 252.68C176.763 252.913 175.876 253.053 174.803 253.1L171.093 253.45L169.903 255.83C169.576 256.437 169.296 256.997 169.063 257.51C168.829 257.977 168.666 258.257 168.573 258.35C168.573 258.63 168.409 259.05 168.083 259.61C167.803 260.17 167.499 260.777 167.173 261.43C166.893 262.223 166.566 262.947 166.193 263.6C165.866 264.253 165.703 264.58 165.703 264.58C165.516 264.58 165.423 264.72 165.423 265C165.656 265.56 165.586 265.98 165.213 266.26C164.979 266.4 164.769 266.61 164.583 266.89C164.443 267.123 164.373 267.24 164.373 267.24C164.559 267.427 164.583 267.66 164.443 267.94C164.349 268.22 164.209 268.523 164.023 268.85C164.023 269.223 163.906 269.76 163.673 270.46C163.486 271.16 163.276 271.813 163.043 272.42C163.089 273.26 163.136 273.797 163.183 274.03C163.229 274.263 163.346 274.357 163.533 274.31C163.766 274.357 163.976 274.357 164.163 274.31C164.349 274.263 164.536 274.24 164.723 274.24C165.376 273.96 165.026 275.593 163.673 279.14C162.926 280.307 162.413 281.147 162.133 281.66C161.853 282.22 161.596 282.5 161.363 282.5ZM184.956 279.21C182.903 279.21 181.223 278.44 179.916 276.9C178.61 275.313 177.98 273.353 178.026 271.02C178.12 269.34 178.446 267.543 179.006 265.63C179.613 263.67 180.406 261.803 181.386 260.03C182.366 258.21 183.44 256.623 184.606 255.27C185.773 253.917 186.986 252.96 188.246 252.4C188.713 252.167 189.203 251.98 189.716 251.84C190.276 251.7 190.836 251.63 191.396 251.63C191.91 251.63 192.446 251.723 193.006 251.91C193.566 252.05 194.033 252.213 194.406 252.4C195.2 252.727 195.806 253.123 196.226 253.59C196.646 254.057 197.02 254.78 197.346 255.76C197.486 256.647 197.556 257.277 197.556 257.65C197.556 258.023 197.44 258.583 197.206 259.33C196.646 261.01 195.923 262.457 195.036 263.67C194.15 264.883 192.96 265.91 191.466 266.75C191.093 266.983 190.65 267.17 190.136 267.31C189.67 267.403 189.18 267.45 188.666 267.45C187.733 267.45 186.823 267.287 185.936 266.96C185.096 266.587 184.42 266.05 183.906 265.35L183.416 264.79L183.206 265.35C182.74 266.61 182.366 267.777 182.086 268.85C181.853 269.923 181.736 270.903 181.736 271.79C181.736 272.35 181.783 272.887 181.876 273.4C182.016 273.913 182.203 274.357 182.436 274.73C182.623 275.01 182.926 275.22 183.346 275.36C183.813 275.453 184.303 275.5 184.816 275.5C185.143 275.5 185.47 275.5 185.796 275.5C186.17 275.453 186.52 275.36 186.846 275.22C187.64 274.94 188.27 274.637 188.736 274.31C189.25 273.983 189.763 273.633 190.276 273.26L190.556 273.12H190.486C191.046 272.84 191.536 272.56 191.956 272.28C192.423 272 192.656 271.86 192.656 271.86C192.843 271.86 193.03 271.743 193.216 271.51C193.59 271.323 194.056 271.393 194.616 271.72C195.223 272.047 195.526 272.467 195.526 272.98C195.48 273.213 195.27 273.587 194.896 274.1C194.523 274.567 194.103 275.01 193.636 275.43C193.216 275.85 192.866 276.083 192.586 276.13C192.54 276.177 192.376 276.27 192.096 276.41C191.816 276.503 191.63 276.597 191.536 276.69H191.606C191.186 277.25 190.766 277.53 190.346 277.53H189.786C189.6 277.857 188.993 278.23 187.966 278.65C186.94 279.023 185.936 279.21 184.956 279.21ZM188.106 263.81C188.946 263.81 189.67 263.577 190.276 263.11C190.93 262.597 191.49 262.037 191.956 261.43C192.89 260.17 193.426 258.957 193.566 257.79C193.753 256.577 193.613 255.737 193.146 255.27C192.866 255.13 192.61 255.06 192.376 255.06C192.19 255.013 191.793 255.083 191.186 255.27C190.766 255.363 190.183 255.713 189.436 256.32C188.69 256.927 187.943 257.603 187.196 258.35C186.496 259.097 185.96 259.727 185.586 260.24L184.676 261.71C185.05 261.57 185.4 261.5 185.726 261.5C186.1 261.453 186.31 261.477 186.356 261.57C186.356 261.99 186.426 262.387 186.566 262.76C186.753 263.087 186.963 263.343 187.196 263.53C187.476 263.717 187.78 263.81 188.106 263.81ZM202.33 276.55C201.91 276.223 201.607 275.897 201.42 275.57C201.28 275.243 201.28 274.613 201.42 273.68C201.56 272.373 201.747 271.23 201.98 270.25C202.213 269.223 202.493 268.057 202.82 266.75C202.913 266.19 203.17 265.233 203.59 263.88C204.057 262.527 204.617 261.057 205.27 259.47C205.923 257.883 206.577 256.39 207.23 254.99C207.883 253.543 208.443 252.47 208.91 251.77C209.283 251.49 209.727 251.373 210.24 251.42C210.8 251.467 211.267 251.677 211.64 252.05C212.153 252.47 212.223 253.217 211.85 254.29C211.523 255.317 210.823 256.95 209.75 259.19C209.19 260.45 208.77 261.407 208.49 262.06C208.21 262.667 208.093 263.04 208.14 263.18C208.187 263.273 208.397 263.203 208.77 262.97C209.05 262.457 209.563 261.873 210.31 261.22C211.057 260.52 211.85 259.843 212.69 259.19C213.53 258.537 214.323 257.953 215.07 257.44C215.817 256.927 216.33 256.6 216.61 256.46C216.983 256.227 217.403 256.04 217.87 255.9C218.383 255.713 218.733 255.573 218.92 255.48C219.993 254.967 221.09 254.78 222.21 254.92C223.33 255.06 224.03 255.48 224.31 256.18C224.357 256.553 224.497 256.833 224.73 257.02C225.01 257.207 225.15 257.3 225.15 257.3C225.337 257.3 225.43 257.37 225.43 257.51C225.477 257.65 225.5 257.72 225.5 257.72C225.5 258.047 225.243 258.257 224.73 258.35C224.263 258.397 223.657 258.443 222.91 258.49C222.303 258.537 221.767 258.653 221.3 258.84C220.833 259.027 220.273 259.26 219.62 259.54C217.847 260.567 216.143 261.57 214.51 262.55C212.923 263.53 211.383 264.837 209.89 266.47C209.563 266.843 209.237 267.287 208.91 267.8C208.583 268.313 208.233 268.873 207.86 269.48C207.627 269.713 207.393 270.227 207.16 271.02C206.927 271.813 206.717 272.583 206.53 273.33C206.39 274.03 206.32 274.45 206.32 274.59C206.32 274.59 206.25 274.823 206.11 275.29C205.97 275.71 205.737 276.13 205.41 276.55C204.85 277.297 204.383 277.67 204.01 277.67C203.637 277.67 203.077 277.297 202.33 276.55ZM243.878 282.36C243.318 282.36 242.851 282.057 242.478 281.45C242.198 281.17 242.011 280.773 241.918 280.26C241.871 279.793 242.034 278.93 242.408 277.67C242.781 276.363 243.411 274.38 244.298 271.72C244.764 269.947 245.138 268.663 245.418 267.87C245.698 267.03 245.838 266.423 245.838 266.05C245.838 265.537 245.884 265.117 245.978 264.79C246.118 264.417 246.188 264.067 246.188 263.74C246.468 263.74 246.748 263.483 247.028 262.97C247.308 262.457 247.541 261.757 247.728 260.87C247.914 260.077 248.078 259.447 248.218 258.98C248.404 258.467 248.498 258.117 248.498 257.93C248.731 257.557 248.964 256.973 249.198 256.18C249.478 255.387 249.898 254.43 250.458 253.31C250.831 251.91 251.251 250.463 251.718 248.97C252.184 247.43 252.651 246.007 253.118 244.7C253.631 243.347 254.051 242.297 254.378 241.55C254.891 240.103 255.288 239.1 255.568 238.54C255.848 237.933 255.848 237.537 255.568 237.35C255.241 237.117 255.171 236.72 255.358 236.16C255.544 235.6 256.058 234.97 256.898 234.27C257.411 233.663 257.854 233.243 258.228 233.01C258.601 232.73 259.068 232.59 259.628 232.59C260.234 232.59 261.098 232.637 262.218 232.73C263.058 232.777 263.944 232.8 264.878 232.8C265.858 232.8 266.464 232.8 266.698 232.8C267.118 232.987 267.631 233.197 268.238 233.43C268.844 233.617 269.381 233.803 269.848 233.99C270.361 234.177 270.618 234.34 270.618 234.48C270.618 234.76 270.711 234.947 270.898 235.04C271.131 235.087 271.364 235.133 271.598 235.18C271.924 235.18 272.368 235.437 272.928 235.95C273.488 236.417 274.071 237.023 274.678 237.77C275.284 238.47 275.751 239.217 276.078 240.01C276.451 240.803 276.731 241.55 276.918 242.25C277.151 242.95 277.151 243.953 276.918 245.26C276.871 245.96 276.754 246.66 276.568 247.36C276.428 248.06 276.264 248.527 276.078 248.76C275.798 248.947 275.541 249.18 275.308 249.46C275.074 249.74 274.958 249.997 274.958 250.23C274.958 250.417 274.794 250.79 274.468 251.35C274.141 251.863 273.721 252.47 273.208 253.17C272.694 253.87 272.134 254.57 271.528 255.27C270.921 255.97 270.338 256.577 269.778 257.09C269.171 257.837 268.448 258.537 267.608 259.19C266.814 259.843 266.091 260.38 265.438 260.8C264.224 261.36 262.871 261.92 261.378 262.48C259.931 263.04 258.531 263.507 257.178 263.88C255.871 264.253 254.774 264.417 253.888 264.37C252.534 264.557 251.648 264.743 251.228 264.93C250.854 265.07 250.574 265.467 250.388 266.12C250.154 266.727 249.921 267.357 249.688 268.01C249.501 268.617 249.408 269.037 249.408 269.27C249.314 269.457 249.081 270.04 248.708 271.02C248.381 271.953 248.008 273.05 247.588 274.31C247.214 275.57 246.841 276.807 246.468 278.02C246.094 279.233 245.814 280.237 245.628 281.03C245.441 281.683 245.208 282.057 244.928 282.15C244.648 282.29 244.298 282.36 243.878 282.36ZM252.558 260.66C252.744 260.847 253.468 260.87 254.728 260.73C255.988 260.59 257.341 260.24 258.788 259.68C259.721 259.353 260.654 258.957 261.588 258.49C262.568 258.023 263.501 257.51 264.388 256.95C264.854 256.623 265.554 256.04 266.488 255.2C267.421 254.36 268.354 253.357 269.288 252.19C269.428 251.957 269.661 251.513 269.988 250.86C270.361 250.16 270.688 249.507 270.968 248.9C271.388 248.247 271.808 247.29 272.228 246.03C272.648 244.723 272.741 243.65 272.508 242.81C272.274 241.597 271.668 240.477 270.688 239.45C269.708 238.377 268.541 237.653 267.188 237.28C266.161 237.093 265.298 237 264.598 237C263.944 237 263.221 237.07 262.428 237.21C261.681 237.443 261.121 237.77 260.748 238.19C260.421 238.61 259.978 239.497 259.418 240.85C259.091 241.503 258.624 242.507 258.018 243.86C257.411 245.167 256.898 246.403 256.478 247.57C255.638 250.65 254.798 253.193 253.958 255.2C253.164 257.16 252.674 258.397 252.488 258.91C252.534 259.423 252.511 259.797 252.418 260.03C252.324 260.217 252.371 260.427 252.558 260.66ZM279.918 276.83C279.778 276.877 279.545 276.853 279.218 276.76C278.892 276.667 278.565 276.55 278.238 276.41C277.912 276.27 277.702 276.153 277.608 276.06C277.422 275.873 277.235 275.593 277.048 275.22C276.908 274.847 276.908 274.31 277.048 273.61C277.188 272.863 277.655 271.907 278.448 270.74C278.682 270.273 278.962 269.573 279.288 268.64C279.615 267.707 279.942 266.727 280.268 265.7C280.642 264.627 280.968 263.67 281.248 262.83C281.575 261.99 281.808 261.407 281.948 261.08C282.042 260.287 281.995 259.727 281.808 259.4C281.668 259.027 281.272 258.817 280.618 258.77C280.152 258.77 279.778 258.723 279.498 258.63C279.265 258.537 279.148 258.07 279.148 257.23C279.242 256.577 279.405 256.133 279.638 255.9C279.918 255.62 280.292 255.317 280.758 254.99C281.225 254.757 281.692 254.593 282.158 254.5C282.672 254.407 283.162 254.383 283.628 254.43C284.095 254.477 284.468 254.64 284.748 254.92C285.075 255.107 285.285 255.527 285.378 256.18C285.472 256.787 285.518 257.417 285.518 258.07C285.565 258.723 285.612 259.213 285.658 259.54C286.125 259.167 286.755 258.653 287.548 258C288.388 257.3 289.112 256.647 289.718 256.04C290.465 255.527 291.352 255.013 292.378 254.5C293.405 253.94 294.152 253.66 294.618 253.66C295.132 253.66 295.645 253.8 296.158 254.08C296.672 254.313 297.022 254.617 297.208 254.99C297.675 255.783 297.885 256.483 297.838 257.09C297.838 257.697 297.582 258.327 297.068 258.98C296.602 259.587 296.018 260.007 295.318 260.24C294.665 260.473 294.245 260.59 294.058 260.59C293.778 260.59 293.428 260.38 293.008 259.96C292.588 259.54 292.355 259.19 292.308 258.91C292.308 258.77 292.005 258.91 291.398 259.33C290.838 259.703 290.208 260.193 289.508 260.8C288.808 261.36 288.225 261.873 287.758 262.34C286.965 263.32 286.125 264.65 285.238 266.33C284.352 268.01 283.302 270.04 282.088 272.42C281.528 273.587 281.132 274.59 280.898 275.43C280.665 276.223 280.338 276.69 279.918 276.83ZM305.213 276.69C304.653 276.783 304.046 276.69 303.393 276.41C302.74 276.13 302.156 275.733 301.643 275.22C301.176 274.707 300.873 274.17 300.733 273.61C300.546 272.63 300.663 271.417 301.083 269.97C301.55 268.477 302.203 266.913 303.043 265.28C303.93 263.6 304.91 261.99 305.983 260.45C307.103 258.91 308.246 257.58 309.413 256.46C310.626 255.293 311.746 254.5 312.773 254.08C313.286 253.753 313.683 253.543 313.963 253.45C314.29 253.31 314.616 253.287 314.943 253.38C315.316 253.473 315.853 253.707 316.553 254.08C317.206 254.267 317.696 254.477 318.023 254.71C318.35 254.943 318.77 255.41 319.283 256.11C319.656 256.81 319.936 257.51 320.123 258.21C320.31 258.91 320.473 259.703 320.613 260.59C320.986 261.757 321.126 262.527 321.033 262.9C320.94 263.227 320.8 263.483 320.613 263.67C320.24 264.137 320.146 264.37 320.333 264.37C320.333 264.37 320.31 264.463 320.263 264.65C320.263 264.79 320.17 265.023 319.983 265.35C319.656 266.377 319.4 267.45 319.213 268.57C319.073 269.643 319.096 270.53 319.283 271.23C319.656 272.257 320.333 272.863 321.313 273.05C322.293 273.237 323.296 272.817 324.323 271.79C324.836 271.417 325.326 271.09 325.793 270.81C326.26 270.483 326.493 270.507 326.493 270.88C326.493 270.88 326.563 270.95 326.703 271.09C326.843 271.183 327.006 271.23 327.193 271.23C327.426 271.23 327.566 271.323 327.613 271.51C327.706 271.697 327.706 271.953 327.613 272.28C327.566 272.56 327.426 272.887 327.193 273.26C326.493 273.96 326.143 274.427 326.143 274.66C326.143 274.66 326.05 274.753 325.863 274.94C325.723 275.08 325.466 275.313 325.093 275.64C324.253 276.153 323.18 276.41 321.873 276.41C320.613 276.41 319.633 276.153 318.933 275.64C318.233 275.127 317.58 274.427 316.973 273.54C316.413 272.653 316.04 271.883 315.853 271.23L315.503 270.53L313.473 271.86C312.96 272.373 312.4 272.863 311.793 273.33C311.233 273.797 310.86 274.123 310.673 274.31C310.533 274.497 310.37 274.66 310.183 274.8C310.043 274.94 309.88 275.01 309.693 275.01C309.506 275.01 309.343 275.01 309.203 275.01C309.063 275.01 308.993 275.01 308.993 275.01C308.993 275.197 308.76 275.43 308.293 275.71C307.873 275.99 307.36 276.223 306.753 276.41C306.193 276.597 305.68 276.69 305.213 276.69ZM304.513 272.91C304.793 272.91 305.283 272.7 305.983 272.28C306.73 271.813 307.546 271.277 308.433 270.67C309.366 270.063 310.183 269.457 310.883 268.85C311.63 268.243 312.143 267.777 312.423 267.45C312.61 267.263 312.913 266.96 313.333 266.54C313.753 266.073 314.126 265.677 314.453 265.35C315.526 264.137 316.273 262.807 316.693 261.36C317.113 259.867 317.066 258.7 316.553 257.86C316.366 257.347 316.133 257.067 315.853 257.02C315.573 256.973 314.99 257.137 314.103 257.51C313.543 257.837 312.843 258.467 312.003 259.4C311.21 260.287 310.346 261.337 309.413 262.55C308.526 263.717 307.686 264.93 306.893 266.19C306.1 267.45 305.446 268.617 304.933 269.69C304.42 270.763 304.163 271.603 304.163 272.21C304.163 272.397 304.21 272.56 304.303 272.7C304.443 272.84 304.513 272.91 304.513 272.91ZM339.664 277.18C339.057 277.46 338.357 277.577 337.564 277.53C336.771 277.483 335.697 277.227 334.344 276.76C334.251 276.76 334.041 276.667 333.714 276.48C333.434 276.293 333.131 276.06 332.804 275.78C332.524 275.453 332.291 275.103 332.104 274.73C331.357 273.657 331.054 272.07 331.194 269.97C331.334 267.87 331.987 265.35 333.154 262.41C333.481 261.71 333.971 260.823 334.624 259.75C335.324 258.677 336.001 257.697 336.654 256.81C337.354 255.877 337.844 255.34 338.124 255.2C338.124 255.2 338.381 255.107 338.894 254.92C339.407 254.733 340.061 254.43 340.854 254.01C341.087 253.917 341.344 253.823 341.624 253.73C341.951 253.637 342.277 253.567 342.604 253.52C342.931 253.473 343.211 253.473 343.444 253.52C344.377 253.567 345.334 253.917 346.314 254.57C347.341 255.177 348.181 255.9 348.834 256.74C349.487 257.533 349.697 258.233 349.464 258.84C349.464 258.933 349.324 259.12 349.044 259.4C348.811 259.633 348.531 259.89 348.204 260.17C347.924 260.403 347.691 260.637 347.504 260.87C347.271 261.15 346.944 261.267 346.524 261.22C346.151 261.173 345.801 260.987 345.474 260.66C345.194 260.287 345.031 259.82 344.984 259.26C344.891 258.887 344.541 258.537 343.934 258.21C343.374 257.883 343.094 257.72 343.094 257.72C342.721 257.72 342.184 258.07 341.484 258.77C340.831 259.423 340.177 260.217 339.524 261.15C338.684 261.99 337.961 262.993 337.354 264.16C336.747 265.28 336.257 266.353 335.884 267.38C335.557 268.36 335.324 269.06 335.184 269.48C334.997 269.947 334.974 270.6 335.114 271.44C335.254 272.28 335.417 272.793 335.604 272.98C335.791 273.073 336.257 273.097 337.004 273.05C337.797 273.003 338.731 272.91 339.804 272.77C340.877 272.583 341.927 272.373 342.954 272.14C343.981 271.907 344.821 271.65 345.474 271.37C346.361 270.81 347.131 270.483 347.784 270.39C348.437 270.297 348.927 270.297 349.254 270.39C349.767 270.577 350.071 270.833 350.164 271.16C350.257 271.487 350.141 271.86 349.814 272.28C349.487 272.653 348.927 273.05 348.134 273.47C347.387 273.843 346.711 274.263 346.104 274.73C345.544 275.15 345.264 275.477 345.264 275.71C345.077 275.71 344.867 275.78 344.634 275.92C344.447 276.013 344.284 276.037 344.144 275.99C344.051 275.99 343.677 276.06 343.024 276.2C342.371 276.34 341.694 276.503 340.994 276.69C340.341 276.877 339.897 277.04 339.664 277.18ZM361.227 278.51C360.714 278.417 360.177 278.16 359.617 277.74C359.104 277.273 358.637 276.76 358.217 276.2C357.844 275.593 357.587 275.057 357.447 274.59C357.447 274.497 357.377 274.38 357.237 274.24C357.144 274.1 357.097 274.03 357.097 274.03C356.911 273.89 356.794 273.283 356.747 272.21C356.747 271.09 356.817 269.853 356.957 268.5C357.097 267.147 357.261 266.073 357.447 265.28C357.681 264.533 358.031 263.53 358.497 262.27C358.964 260.963 359.361 259.797 359.687 258.77L361.577 254.71L358.777 253.94C358.451 253.847 358.171 253.66 357.937 253.38C357.751 253.1 357.657 252.867 357.657 252.68C357.657 252.307 357.867 251.863 358.287 251.35C358.707 250.79 359.011 250.51 359.197 250.51C359.431 250.557 359.851 250.58 360.457 250.58C361.111 250.58 361.741 250.557 362.347 250.51C362.954 250.463 363.327 250.417 363.467 250.37C363.654 250.277 363.841 250.16 364.027 250.02C364.214 249.833 364.354 249.577 364.447 249.25C364.681 248.737 364.891 248.27 365.077 247.85C365.264 247.383 365.521 246.87 365.847 246.31C366.174 245.703 366.431 245.19 366.617 244.77C366.851 244.35 367.201 243.767 367.667 243.02C367.901 242.693 368.157 242.297 368.437 241.83C368.717 241.363 369.067 240.967 369.487 240.64C369.907 240.267 370.327 240.103 370.747 240.15C371.214 240.15 371.797 240.453 372.497 241.06C372.871 241.527 373.081 241.877 373.127 242.11C373.174 242.343 372.987 242.787 372.567 243.44C372.194 244.233 371.751 245.027 371.237 245.82C370.771 246.613 370.327 247.407 369.907 248.2C369.161 249.227 369.021 249.81 369.487 249.95C369.954 250.09 371.261 249.997 373.407 249.67C374.761 249.437 375.741 249.507 376.347 249.88C376.954 250.207 377.304 250.767 377.397 251.56C377.537 252.68 377.421 253.357 377.047 253.59C376.674 253.823 375.601 253.94 373.827 253.94C372.707 254.127 371.751 254.243 370.957 254.29C370.164 254.29 369.581 254.29 369.207 254.29C368.601 254.337 368.204 254.36 368.017 254.36C367.831 254.36 367.551 254.407 367.177 254.5C366.804 254.593 366.524 254.757 366.337 254.99C366.197 255.177 366.034 255.457 365.847 255.83C365.661 256.017 365.381 256.507 365.007 257.3C364.634 258.093 364.167 258.957 363.607 259.89C362.954 261.85 362.394 263.81 361.927 265.77C361.461 267.683 361.087 269.55 360.807 271.37C360.621 272.537 360.644 273.353 360.877 273.82C361.111 274.24 361.717 274.497 362.697 274.59C363.211 274.637 364.027 274.637 365.147 274.59C366.314 274.497 367.224 274.357 367.877 274.17C368.391 273.937 368.927 273.703 369.487 273.47C370.047 273.19 370.561 272.91 371.027 272.63C371.447 272.397 371.867 272.163 372.287 271.93C372.707 271.65 372.917 271.51 372.917 271.51C373.151 271.137 373.407 271.02 373.687 271.16C373.967 271.3 374.201 271.65 374.387 272.21C374.387 272.77 374.271 273.353 374.037 273.96C373.804 274.567 372.941 275.29 371.447 276.13C369.347 277.437 367.411 278.23 365.637 278.51C363.911 278.743 362.441 278.743 361.227 278.51ZM379.983 276.76C379.61 276.387 379.33 275.92 379.143 275.36C379.003 274.8 378.956 274.24 379.003 273.68C379.05 273.12 379.166 272.653 379.353 272.28C379.353 271.907 379.4 271.627 379.493 271.44C379.633 271.207 379.68 270.997 379.633 270.81C379.586 270.623 379.633 270.297 379.773 269.83C379.913 269.363 380.053 268.92 380.193 268.5C380.52 267.753 380.87 266.867 381.243 265.84C381.616 264.767 381.966 263.717 382.293 262.69C382.62 261.663 382.9 260.777 383.133 260.03C383.366 259.283 383.506 258.817 383.553 258.63C383.553 258.07 383.926 257.767 384.673 257.72C385.233 257.533 385.653 257.533 385.933 257.72C386.213 257.86 386.586 258.303 387.053 259.05C387.426 259.423 387.566 259.983 387.473 260.73C387.38 261.477 387.076 262.41 386.563 263.53C386.376 263.903 386.143 264.44 385.863 265.14C385.63 265.84 385.466 266.47 385.373 267.03C385.186 267.403 384.953 267.94 384.673 268.64C384.44 269.293 384.23 269.923 384.043 270.53C383.95 270.763 383.856 271.113 383.763 271.58C383.67 272 383.553 272.467 383.413 272.98C383.273 273.447 383.086 273.867 382.853 274.24C382.433 276.153 382.036 277.273 381.663 277.6C381.336 277.927 380.776 277.647 379.983 276.76ZM386.773 248.34C386.54 248.107 386.33 247.78 386.143 247.36C385.956 246.893 385.84 246.473 385.793 246.1C385.746 245.68 385.793 245.47 385.933 245.47C386.306 245.423 386.75 245.027 387.263 244.28C387.776 243.533 387.986 242.88 387.893 242.32C387.893 242.133 387.963 241.97 388.103 241.83C388.243 241.643 388.406 241.527 388.593 241.48C389.153 241.107 389.69 241.06 390.203 241.34C390.763 241.573 391.276 242.063 391.743 242.81C392.163 243.697 392.28 244.443 392.093 245.05C391.906 245.61 391.393 246.403 390.553 247.43C389.853 248.363 389.2 248.877 388.593 248.97C388.033 249.063 387.426 248.853 386.773 248.34ZM399.62 277.39C398.593 277.39 397.823 277.343 397.31 277.25C396.796 277.157 396.4 277.017 396.12 276.83C395.84 276.643 395.513 276.387 395.14 276.06C394.953 275.687 394.72 275.29 394.44 274.87C394.16 274.45 393.926 274.147 393.74 273.96C393.553 273.26 393.46 272.35 393.46 271.23C393.506 270.11 393.646 268.897 393.88 267.59C394.16 266.283 394.533 265.07 395 263.95C395.186 263.577 395.35 263.203 395.49 262.83C395.63 262.457 395.7 262.27 395.7 262.27C395.7 262.037 395.98 261.477 396.54 260.59C397.146 259.703 397.8 258.77 398.5 257.79C399.246 256.81 399.853 256.11 400.32 255.69C400.646 255.317 401.136 254.92 401.79 254.5C402.49 254.08 403.096 253.777 403.61 253.59C404.123 253.403 404.636 253.24 405.15 253.1C405.71 252.96 406.34 252.89 407.04 252.89C407.693 252.89 408.3 253.03 408.86 253.31C409.42 253.59 409.956 254.08 410.47 254.78C411.31 255.62 411.776 256.46 411.87 257.3C412.01 258.093 411.986 258.91 411.8 259.75C411.566 260.683 411.263 261.407 410.89 261.92C410.516 262.387 410.096 262.597 409.63 262.55C409.163 262.503 408.626 262.153 408.02 261.5C407.833 261.127 407.74 260.823 407.74 260.59C407.74 260.31 407.833 259.913 408.02 259.4C408.206 258.747 408.206 258.07 408.02 257.37C407.833 256.67 407.53 256.32 407.11 256.32C406.503 256.32 405.826 256.6 405.08 257.16C404.38 257.673 403.656 258.327 402.91 259.12C402.583 259.493 402.116 260.077 401.51 260.87C400.95 261.617 400.39 262.457 399.83 263.39C399.27 264.277 398.803 265.14 398.43 265.98C397.916 267.52 397.496 268.757 397.17 269.69C396.89 270.623 396.75 271.09 396.75 271.09C396.75 271.277 396.796 271.463 396.89 271.65C397.03 271.79 397.1 271.953 397.1 272.14C397.1 272.7 397.426 273.143 398.08 273.47C398.593 273.797 399.2 273.983 399.9 274.03C400.6 274.03 401.463 273.797 402.49 273.33C403.236 272.957 403.936 272.467 404.59 271.86C405.29 271.253 406.013 270.717 406.76 270.25C407.273 269.923 407.67 269.643 407.95 269.41C408.276 269.177 408.44 269.153 408.44 269.34C408.44 269.527 408.51 269.62 408.65 269.62C408.79 269.62 408.953 269.527 409.14 269.34C409.42 268.967 409.723 268.733 410.05 268.64C410.376 268.5 410.656 268.453 410.89 268.5C411.17 268.5 411.31 268.57 411.31 268.71C411.216 269.13 411.31 269.48 411.59 269.76C411.59 269.947 411.52 270.203 411.38 270.53C411.286 270.81 411.146 271.043 410.96 271.23C410.726 271.557 410.376 271.93 409.91 272.35C409.49 272.77 409.093 273.143 408.72 273.47C408.346 273.75 408.16 273.89 408.16 273.89C407.973 273.843 407.786 273.89 407.6 274.03C407.46 274.17 407.296 274.333 407.11 274.52C406.736 274.847 406.386 275.103 406.06 275.29C405.733 275.43 405.476 275.5 405.29 275.5C404.963 275.687 404.706 275.803 404.52 275.85C404.38 275.897 404.31 276.013 404.31 276.2C403.843 276.667 403.26 276.993 402.56 277.18C401.906 277.32 400.926 277.39 399.62 277.39ZM423.531 279.21C421.477 279.21 419.797 278.44 418.491 276.9C417.184 275.313 416.554 273.353 416.601 271.02C416.694 269.34 417.021 267.543 417.581 265.63C418.187 263.67 418.981 261.803 419.961 260.03C420.941 258.21 422.014 256.623 423.181 255.27C424.347 253.917 425.561 252.96 426.821 252.4C427.287 252.167 427.777 251.98 428.291 251.84C428.851 251.7 429.411 251.63 429.971 251.63C430.484 251.63 431.021 251.723 431.581 251.91C432.141 252.05 432.607 252.213 432.981 252.4C433.774 252.727 434.381 253.123 434.801 253.59C435.221 254.057 435.594 254.78 435.921 255.76C436.061 256.647 436.131 257.277 436.131 257.65C436.131 258.023 436.014 258.583 435.781 259.33C435.221 261.01 434.497 262.457 433.611 263.67C432.724 264.883 431.534 265.91 430.041 266.75C429.667 266.983 429.224 267.17 428.711 267.31C428.244 267.403 427.754 267.45 427.241 267.45C426.307 267.45 425.397 267.287 424.511 266.96C423.671 266.587 422.994 266.05 422.481 265.35L421.991 264.79L421.781 265.35C421.314 266.61 420.941 267.777 420.661 268.85C420.427 269.923 420.311 270.903 420.311 271.79C420.311 272.35 420.357 272.887 420.451 273.4C420.591 273.913 420.777 274.357 421.011 274.73C421.197 275.01 421.501 275.22 421.921 275.36C422.387 275.453 422.877 275.5 423.391 275.5C423.717 275.5 424.044 275.5 424.371 275.5C424.744 275.453 425.094 275.36 425.421 275.22C426.214 274.94 426.844 274.637 427.311 274.31C427.824 273.983 428.337 273.633 428.851 273.26L429.131 273.12H429.061C429.621 272.84 430.111 272.56 430.531 272.28C430.997 272 431.231 271.86 431.231 271.86C431.417 271.86 431.604 271.743 431.791 271.51C432.164 271.323 432.631 271.393 433.191 271.72C433.797 272.047 434.101 272.467 434.101 272.98C434.054 273.213 433.844 273.587 433.471 274.1C433.097 274.567 432.677 275.01 432.211 275.43C431.791 275.85 431.441 276.083 431.161 276.13C431.114 276.177 430.951 276.27 430.671 276.41C430.391 276.503 430.204 276.597 430.111 276.69H430.181C429.761 277.25 429.341 277.53 428.921 277.53H428.361C428.174 277.857 427.567 278.23 426.541 278.65C425.514 279.023 424.511 279.21 423.531 279.21ZM426.681 263.81C427.521 263.81 428.244 263.577 428.851 263.11C429.504 262.597 430.064 262.037 430.531 261.43C431.464 260.17 432.001 258.957 432.141 257.79C432.327 256.577 432.187 255.737 431.721 255.27C431.441 255.13 431.184 255.06 430.951 255.06C430.764 255.013 430.367 255.083 429.761 255.27C429.341 255.363 428.757 255.713 428.011 256.32C427.264 256.927 426.517 257.603 425.771 258.35C425.071 259.097 424.534 259.727 424.161 260.24L423.251 261.71C423.624 261.57 423.974 261.5 424.301 261.5C424.674 261.453 424.884 261.477 424.931 261.57C424.931 261.99 425.001 262.387 425.141 262.76C425.327 263.087 425.537 263.343 425.771 263.53C426.051 263.717 426.354 263.81 426.681 263.81ZM446.014 278.02C443.681 278.02 441.978 277.18 440.904 275.5C440.578 275.033 440.414 274.567 440.414 274.1C440.461 273.587 440.601 273.237 440.834 273.05C441.114 272.863 441.441 273.027 441.814 273.54C442.468 273.913 443.401 274.1 444.614 274.1C445.221 274.1 445.851 274.053 446.504 273.96C447.158 273.82 447.811 273.633 448.464 273.4C449.164 273.073 449.631 272.793 449.864 272.56C450.098 272.28 450.051 272.047 449.724 271.86H449.794C448.581 271.533 447.344 271.02 446.084 270.32C444.871 269.573 443.821 268.78 442.934 267.94C442.048 267.053 441.534 266.26 441.394 265.56C441.021 264.113 441.114 262.643 441.674 261.15C442.234 259.61 443.028 258.257 444.054 257.09C444.428 256.857 444.894 256.577 445.454 256.25C446.014 255.877 446.458 255.667 446.784 255.62V255.69C447.671 254.757 448.744 254.01 450.004 253.45C451.311 252.89 452.688 252.377 454.134 251.91L455.184 251.77C455.744 251.677 456.211 251.63 456.584 251.63C456.538 251.63 456.631 251.677 456.864 251.77C457.098 251.817 457.308 251.863 457.494 251.91C457.774 252.05 458.008 252.12 458.194 252.12C458.801 252.213 459.361 252.493 459.874 252.96C460.388 253.427 460.784 253.987 461.064 254.64C461.391 255.247 461.508 255.83 461.414 256.39C461.321 257.277 461.041 258.07 460.574 258.77C460.154 259.47 459.641 259.867 459.034 259.96C459.128 259.913 459.058 259.843 458.824 259.75C458.638 259.61 458.428 259.47 458.194 259.33L457.984 259.47C457.984 259.47 457.961 259.423 457.914 259.33C457.914 259.19 457.868 259.027 457.774 258.84C457.634 258.56 457.564 258.257 457.564 257.93C457.564 257.557 457.588 257.16 457.634 256.74C457.728 256.227 457.728 255.923 457.634 255.83C457.588 255.737 457.284 255.667 456.724 255.62C456.071 255.48 455.114 255.597 453.854 255.97C452.641 256.343 451.614 256.857 450.774 257.51C449.748 258.163 448.884 258.793 448.184 259.4C447.484 259.96 446.924 260.52 446.504 261.08C446.084 261.593 445.711 262.2 445.384 262.9C445.151 263.227 444.941 263.553 444.754 263.88C444.614 264.16 444.544 264.417 444.544 264.65C444.544 265.163 444.918 265.7 445.664 266.26C446.458 266.773 447.624 267.38 449.164 268.08C450.378 268.593 451.404 269.153 452.244 269.76C453.084 270.367 453.668 271.067 453.994 271.86C454.088 272.047 454.111 272.28 454.064 272.56C454.064 272.793 454.018 272.957 453.924 273.05C454.018 273.143 454.064 273.213 454.064 273.26V273.19C454.438 273.75 454.438 274.333 454.064 274.94C453.738 275.547 453.154 276.083 452.314 276.55C451.521 276.97 450.541 277.297 449.374 277.53H449.444C448.838 277.717 448.231 277.857 447.624 277.95C447.064 277.997 446.528 278.02 446.014 278.02Z" fill="url(#paint0_linear_6_2)"/>
<defs>
<linearGradient id="paint0_linear_6_2" x1="255.5" y1="212" x2="255.5" y2="300" gradientUnits="userSpaceOnUse">
<stop stop-color="white"/>
<stop offset="1" stop-color="#213631"/>
</linearGradient>
</defs>
</svg>
